HIERARCHY
ROOT joint_Root
{
	OFFSET 0.0 0.0 0.0
	CHANNELS 6 Xposition Yposition Zposition Zrotation Xrotation Yrotation 
	JOINT Hips
	{
		OFFSET -17.1583 93.1646 452.98
		CHANNELS 6 Xposition Yposition Zposition Zrotation Xrotation Yrotation 
		JOINT Spine
		{
			OFFSET 15.7357 0.0 0.0
			CHANNELS 6 Xposition Yposition Zposition Zrotation Xrotation Yrotation 
			JOINT Chest
			{
				OFFSET 8.98455 -0.406207 0.0
				CHANNELS 6 Xposition Yposition Zposition Zrotation Xrotation Yrotation 
				JOINT Neck
				{
					OFFSET 16.3773 0.0 0.0
					CHANNELS 6 Xposition Yposition Zposition Zrotation Xrotation Yrotation 
					JOINT Head
					{
						OFFSET 6.45672 0.0 0.0
						CHANNELS 6 Xposition Yposition Zposition Zrotation Xrotation Yrotation 
						End Site
						{
							OFFSET 0.0 0.0 0.0
						}
					}
				}
				JOINT Shoulder_L
				{
					OFFSET 12.9942 -0.242716 4.98039
					CHANNELS 6 Xposition Yposition Zposition Zrotation Xrotation Yrotation 
					JOINT UpperArm_L
					{
						OFFSET 5.34809 0.0 0.0
						CHANNELS 6 Xposition Yposition Zposition Zrotation Xrotation Yrotation 
						JOINT LowerArm_L
						{
							OFFSET 24.3286 1.87007e-05 0.0
							CHANNELS 6 Xposition Yposition Zposition Zrotation Xrotation Yrotation 
							JOINT Hand_L
							{
								OFFSET 22.2916 0.0 0.0
								CHANNELS 6 Xposition Yposition Zposition Zrotation Xrotation Yrotation 
								End Site
								{
									OFFSET 0.0 0.0 0.0
								}
							}
						}
					}
				}
				JOINT Shoulder_R
				{
					OFFSET 12.9945 -0.242716 -4.98039
					CHANNELS 6 Xposition Yposition Zposition Zrotation Xrotation Yrotation 
					JOINT UpperArm_R
					{
						OFFSET -5.34813 0.0 0.0
						CHANNELS 6 Xposition Yposition Zposition Zrotation Xrotation Yrotation 
						JOINT LowerArm_R
						{
							OFFSET -24.3289 0.000322201 0.0
							CHANNELS 6 Xposition Yposition Zposition Zrotation Xrotation Yrotation 
							JOINT Hand_R
							{
								OFFSET -22.2915 -0.000108084 0.0
								CHANNELS 6 Xposition Yposition Zposition Zrotation Xrotation Yrotation 
								End Site
								{
									OFFSET 0.0 0.0 0.0
								}
							}
						}
					}
				}
			}
		}
		JOINT UpperLeg_L
		{
			OFFSET -2.19248 -6.46944 0.0
			CHANNELS 6 Xposition Yposition Zposition Zrotation Xrotation Yrotation 
			JOINT LowerLeg_L
			{
				OFFSET 39.0811 0.0 -1.23785e-05
				CHANNELS 6 Xposition Yposition Zposition Zrotation Xrotation Yrotation 
				JOINT Foot_L
				{
					OFFSET 40.9854 0.0 -1.26872e-05
					CHANNELS 6 Xposition Yposition Zposition Zrotation Xrotation Yrotation 
					JOINT Toes_L
					{
						OFFSET 11.7543 0.0 0.0
						CHANNELS 6 Xposition Yposition Zposition Zrotation Xrotation Yrotation 
						End Site
						{
							OFFSET 0.0 0.0 0.0
						}
					}
				}
			}
		}
		JOINT UpperLeg_R
		{
			OFFSET -2.19251 6.46944 0.0
			CHANNELS 6 Xposition Yposition Zposition Zrotation Xrotation Yrotation 
			JOINT LowerLeg_R
			{
				OFFSET -39.0811 -0.00228153 -0.0401928
				CHANNELS 6 Xposition Yposition Zposition Zrotation Xrotation Yrotation 
				JOINT Foot_R
				{
					OFFSET -40.9854 0.0 0.0
					CHANNELS 6 Xposition Yposition Zposition Zrotation Xrotation Yrotation 
					JOINT Toes_R
					{
						OFFSET -11.7543 0.0 0.0
						CHANNELS 6 Xposition Yposition Zposition Zrotation Xrotation Yrotation 
						End Site
						{
							OFFSET 0.0 0.0 0.0
						}
					}
				}
			}
		}
	}
}
MOTION
Frames:	4
Frame Time:	0.0333333
0.000000 0.000000 0.000000 0.000000 0.000000 -0.000000 -1.989970 92.468700 -0.907514 87.082700 -0.585185 6.320500 15.735700 0.000005 -0.000001 85.601100 85.785600 -83.740900 8.984550 -0.406207 -0.000000 0.653065 -0.761667 3.721950 16.377300 -0.000001 -0.000001 8.425290 3.824450 -3.593160 6.456720 -0.000001 -0.000000 -5.869470 4.195020 -2.296890 12.994200 -0.242716 4.980390 -93.314000 9.467350 -70.606400 5.348090 -0.000007 -0.000001 -72.901700 20.396200 -1.000650 24.328600 0.000019 0.000005 13.533400 26.691400 -28.184500 22.291600 -0.000001 0.000005 -6.803430 5.072900 5.729190 12.994500 -0.242716 -4.980390 87.296300 7.471500 -70.040800 -5.348130 -0.000001 -0.000004 -68.360800 25.705500 -3.794260 -24.328900 0.000322 -0.000009 1.836840 4.657710 -21.562100 -22.291500 -0.000108 -0.000004 -2.501800 5.268620 0.935199 -2.192480 -6.469440 -0.000000 -176.755000 -3.037280 0.616604 39.081100 -0.000007 -0.000012 0.263701 -0.614410 23.229300 40.985400 -0.000006 -0.000013 1.950770 4.460720 -72.625300 11.754300 -0.000000 0.000003 -0.000662 0.178102 -9.352440 -2.192510 6.469440 -0.000001 -174.698000 8.371780 -174.378000 -39.081100 -0.002282 -0.040193 0.087312 -0.305455 15.373200 -40.985400 0.000008 0.000006 3.144690 4.195590 -70.547900 -11.754300 -0.000006 -0.000006 -0.011540 0.282474 -5.093930
0.000000 0.000000 0.000000 0.000000 0.000000 -0.000000 -2.030060 92.467100 -0.924071 87.094800 -0.458484 6.289380 15.735700 0.000005 -0.000001 85.230800 85.807600 -83.367300 8.984550 -0.406207 -0.000000 0.605811 -0.813271 3.728540 16.377300 -0.000001 -0.000001 8.383670 3.793790 -3.536260 6.456720 -0.000001 -0.000000 -5.990270 4.108330 -2.215360 12.994200 -0.242716 4.980390 -93.363200 9.591860 -70.573200 5.348090 -0.000007 -0.000001 -72.631900 18.927100 -1.029310 24.328600 0.000019 0.000005 13.705000 26.062300 -29.033300 22.291600 -0.000001 0.000005 -7.473210 5.049170 6.256560 12.994500 -0.242716 -4.980390 87.293900 7.446720 -69.963500 -5.348130 -0.000001 -0.000004 -68.069900 24.564600 -3.592940 -24.328900 0.000322 -0.000009 2.010310 4.697910 -23.209800 -22.291500 -0.000108 -0.000004 -2.579260 5.261020 1.139920 -2.192480 -6.469440 -0.000000 -176.748000 -2.956570 0.544825 39.081100 -0.000007 -0.000012 0.264201 -0.614681 23.259400 40.985400 -0.000006 -0.000013 1.935430 4.516130 -72.639400 11.754300 -0.000000 0.000003 -0.000887 0.181410 -9.218030 -2.192510 6.469440 -0.000001 -174.666000 8.348800 -174.452000 -39.081100 -0.002282 -0.040193 0.087329 -0.304521 15.421100 -40.985400 0.000008 0.000006 3.045660 4.093770 -70.526700 -11.754300 -0.000006 -0.000006 -0.010989 0.278550 -5.254560
0.000000 0.000000 0.000000 0.000000 0.000000 -0.000000 -2.062910 92.464700 -0.932308 87.106900 -0.417921 6.256170 15.735700 0.000005 -0.000001 85.181500 85.804200 -83.316200 8.984550 -0.406207 -0.000000 0.612151 -0.821046 3.732160 16.377300 -0.000001 -0.000001 8.254740 3.725490 -3.407470 6.456720 -0.000001 -0.000000 -6.227120 4.058220 -2.142160 12.994200 -0.242716 4.980390 -93.422200 9.722600 -70.500700 5.348090 -0.000007 -0.000001 -72.224500 16.895800 -1.121910 24.328600 0.000019 0.000005 14.275100 25.491200 -30.591600 22.291600 -0.000001 0.000005 -8.466630 5.042350 6.405830 12.994500 -0.242716 -4.980390 87.289800 7.418580 -69.865800 -5.348130 -0.000001 -0.000004 -67.773900 22.788800 -3.356030 -24.328900 0.000322 -0.000009 2.404370 5.052800 -25.498900 -22.291500 -0.000108 -0.000004 -3.125210 5.249690 1.441710 -2.192480 -6.469440 -0.000000 -176.740000 -2.925260 0.486223 39.081100 -0.000007 -0.000012 0.264963 -0.616011 23.274400 40.985400 -0.000006 -0.000013 1.916040 4.540500 -72.596000 11.754300 -0.000000 0.000003 -0.000681 0.178389 -9.340780 -2.192510 6.469440 -0.000001 -174.639000 8.427700 -174.483000 -39.081100 -0.002282 -0.040193 0.088286 -0.308556 15.394200 -40.985400 0.000008 0.000006 3.169790 4.038220 -70.535300 -11.754300 -0.000006 -0.000006 -0.011192 0.280008 -5.194860
0.000000 0.000000 0.000000 0.000000 0.000000 -0.000000 -2.095270 92.478300 -0.956073 87.135700 -0.377012 6.203030 15.735700 0.000005 -0.000001 85.167200 85.805100 -83.306600 8.984550 -0.406207 -0.000000 0.610162 -0.822709 3.722910 16.377300 -0.000001 -0.000001 8.056900 3.676250 -3.300330 6.456720 -0.000001 -0.000000 -6.501170 3.990780 -1.943080 12.994200 -0.242716 4.980390 -93.455000 9.770520 -70.416300 5.348090 -0.000007 -0.000001 -71.757400 15.153700 -1.093370 24.328600 0.000019 0.000005 15.362700 24.707800 -33.316700 22.291600 -0.000001 0.000005 -8.630840 5.017280 6.949500 12.994500 -0.242716 -4.980390 87.278600 7.410840 -69.770400 -5.348130 -0.000001 -0.000004 -67.383800 20.796600 -2.888770 -24.328900 0.000322 -0.000009 2.842990 5.173390 -28.851500 -22.291500 -0.000108 -0.000004 -3.287730 5.219910 2.214280 -2.192480 -6.469440 -0.000000 -176.762000 -2.841190 0.455155 39.081100 -0.000007 -0.000012 0.262562 -0.612733 23.196100 40.985400 -0.000006 -0.000013 1.875670 4.490770 -72.612200 11.754300 -0.000000 0.000003 -0.000834 0.180648 -9.249010 -2.192510 6.469440 -0.000001 -174.652000 8.362730 -174.539000 -39.081100 -0.002282 -0.040193 0.085097 -0.297382 15.373900 -40.985400 0.000008 0.000006 2.994400 4.043990 -70.486500 -11.754300 -0.000006 -0.000006 -0.011037 0.278894 -5.240480
